<?xml version="1.0" standalone="no"?>
<!DOCTYPE svg PUBLIC "-//W3C//DTD SVG 20010904//EN"
 "http://www.w3.org/TR/2001/REC-SVG-20010904/DTD/svg10.dtd">
<svg version="1.0" xmlns="http://www.w3.org/2000/svg"
 width="300.000000pt" height="167.000000pt" viewBox="0 0 300.000000 167.000000"
 preserveAspectRatio="xMidYMid meet">
<metadata>
Created by potrace 1.10, written by Peter Selinger 2001-2011
</metadata>
<g transform="translate(0.000000,167.000000) scale(0.100000,-0.100000)"
fill="#000000" stroke="none">
<path d="M1339 1273 c-337 -339 -346 -349 -336 -375 6 -16 14 -28 17 -28 3 0
142 136 308 303 l302 303 0 -363 0 -363 30 0 30 0 0 435 c0 239 -1 435 -3 435
-1 0 -158 -156 -348 -347z"/>
<path d="M2041 1564 c-125 -33 -236 -129 -294 -251 -27 -58 -32 -82 -35 -164
-9 -202 80 -354 257 -437 73 -35 78 -36 230 -42 182 -6 211 -16 249 -90 37
-73 17 -149 -51 -190 -30 -19 -52 -20 -326 -20 l-293 0 6 -22 c3 -13 6 -29 6
-36 0 -11 54 -13 293 -10 l294 3 49 30 c59 36 104 114 104 179 -1 75 -53 156
-125 194 -22 12 -73 18 -190 22 -148 6 -164 9 -220 35 -76 36 -153 113 -191
190 -27 55 -29 69 -29 170 0 101 2 115 28 168 40 80 112 151 194 190 l68 32
223 3 222 4 15 29 16 29 -223 -1 c-162 0 -238 -4 -277 -15z"/>
<path d="M160 913 l0 -508 35 -28 35 -28 0 511 0 511 -27 24 c-16 13 -31 25
-35 25 -5 0 -8 -228 -8 -507z"/>
<path d="M2097 1327 c-148 -46 -196 -237 -89 -350 52 -55 75 -61 248 -67 156
-6 164 -7 226 -38 79 -39 159 -120 196 -199 24 -51 27 -70 27 -158 0 -93 -2
-105 -33 -167 -41 -84 -128 -167 -209 -200 -58 -23 -62 -23 -535 -26 l-478 -3
0 459 0 458 -260 -260 -260 -261 -262 262 -263 263 2 -413 3 -412 30 -24 31
-24 -3 361 c-2 199 -3 362 -2 362 0 0 103 -104 229 -230 l230 -230 232 232
233 233 0 -418 0 -418 513 3 c465 3 517 5 562 21 116 42 234 156 276 267 31
78 37 203 14 286 -30 111 -112 216 -216 277 -70 41 -149 57 -283 57 -101 0
-126 3 -163 21 -78 38 -107 140 -60 209 46 69 64 75 214 76 132 2 137 3 149
25 7 13 13 27 14 32 0 12 -271 7 -313 -6z"/>
</g>
</svg>
